<svg xmlns="http://www.w3.org/2000/svg" version="1.1" xmlns:xlink="http://www.w3.org/1999/xlink" xmlns:svgjs="http://svgjs.dev/svgjs" width="100%" height="100%" viewBox="0 0 1000 600"><rect width="1000" height="600" x="0" y="0" fill="998885"/><g><circle r="166.66666666666666" cx="441.1335245768229" cy="463.35585250282554" fill="#317773" transform="matrix(0.45542824593211906,0,0,0.4554282459321191,0,88.9746554920358)"/><path d="M416.82420712269635 474.0367989952135L416.82420712269635 538.3558632336744L399.37284577305945 538.3558632336744L399.37284577305945 388.35586768662836L482.89424407182327 388.35586768662836L482.89424407182327 403.7352446619772L416.82420712269635 403.7352446619772L416.82420712269635 458.7449706553979L478.8961897158028 458.7449706553979L478.8961897158028 474.0367989952135L416.82420712269635 474.0367989952135Z " fill="998885" transform="matrix(0.45542824593211906,0,0,0.4554282459321191,0,88.9746554920358)"/><path d="M769.0848020664798 536.4605594216439L691.1335460430976 536.4605594216439L691.1335460430976 397.29089774738713L707.3248802223204 397.29089774738713L707.3248802223204 522.0020770609331L769.0848020664798 522.0020770609331L769.0848020664798 536.4605594216439ZM790.5017675109033 432.1374647852798L806.3140403548267 432.1374647852798L806.3140403548267 536.4605594216439L790.5017675109033 536.4605594216439L790.5017675109033 432.1374647852798ZM798.5974346005149 393.09414724942803L798.5974346005149 393.09414724942803Q802.496351192167 393.09414724942803 805.3122353972493 395.63927335786775Q808.1281196023316 398.1573236566432 808.1281196023316 403.4912581605009L808.1281196023316 403.4912581605009Q808.1281196023316 408.7168894257016 805.3122353972493 411.2890913438056Q802.496351192167 413.86129326190957 798.5974346005149 413.86129326190957L798.5974346005149 413.86129326190957Q794.5089873412127 413.86129326190957 791.8014063747875 411.2890913438056Q789.0938254083622 408.7168894257016 789.0938254083622 403.4912581605009L789.0938254083622 403.4912581605009Q789.0938254083622 398.1573236566432 791.8014063747875 395.63927335786775Q794.5089873412127 393.09414724942803 798.5974346005149 393.09414724942803ZM889.1389421177745 430.2421581087822L889.1389421177745 430.2421581087822Q907.6858717377874 430.2421581087822 917.216556739604 439.3125543463067Q926.7201659317567 448.41002639349546 926.7201659317567 468.50027716437063L926.7201659317567 468.50027716437063L926.7201659317567 536.4605594216439L911.1244995651472 536.4605594216439L911.1244995651472 469.55623374127646Q911.1244995651472 456.5056934831069 905.1678214390118 450.0345749733506Q899.2111433128763 443.56345646359426 886.94580153497 443.56345646359426L886.94580153497 443.56345646359426Q869.6172833498484 443.56345646359426 862.5775728371428 453.3648995620536Q855.5378623244372 463.16634266051295 855.5378623244372 481.8215755191828L855.5378623244372 481.8215755191828L855.5378623244372 536.4605594216439L839.725589480514 536.4605594216439L839.725589480514 432.1374647852798L852.4782958323768 432.1374647852798L854.860967082831 447.1645391489398L855.7273929920872 447.1645391489398Q859.0577175807902 441.64107397743237 864.202121416998 437.90461224376554Q869.3194494435419 434.1410747004345 875.7093405243053 432.19161640460834Q882.0721557954047 430.2421581087822 889.1389421177745 430.2421581087822ZM959.2923649578521 388.35588055818386L974.9963345631185 388.35588055818386L974.9963345631185 465.25118000466034Q974.9963345631185 469.0688691673199 974.6985006568117 474.5381827194989Q974.4277425601691 480.00749627167784 974.2382118925194 484.20424676963694L974.2382118925194 484.20424676963694L974.8880313244614 484.20424676963694Q976.891641239616 481.74034809018997 980.7364062119399 476.86670235062456Q984.608246993928 472.0201324207234 987.2616763410248 469.0688691673199L987.2616763410248 469.0688691673199L1021.9187127112676 432.1374647852798L1040.4656423312804 432.1374647852798L998.4981373516895 476.6771716829748L1043.525208823341 536.4605594216439L1024.4909146293717 536.4605594216439L987.6407376763242 487.04720678438343L974.9963345631185 498.66272913034766L974.9963345631185 536.4605594216439L959.2923649578521 536.4605594216439L959.2923649578521 388.35588055818386ZM1095.4024601400483 525.4136290786289L1095.4024601400483 525.4136290786289Q1099.3013767317007 525.4136290786289 1103.3898239910027 524.7638096466869Q1107.4782712503047 524.0869144050805 1110.0504731684086 523.1392610668318L1110.0504731684086 523.1392610668318L1110.0504731684086 535.4046028447381Q1107.288740582655 536.6500900892936 1102.3880190334253 537.5165159985497Q1097.4872974841956 538.3558660981414 1092.8302582219444 538.3558660981414L1092.8302582219444 538.3558660981414Q1084.545060464683 538.3558660981414 1077.8031838582842 535.4587544640665Q1071.0342314422214 532.5616428299916 1066.9999358022478 525.6031597462786Q1062.9385643526098 518.6717524722301 1062.9385643526098 506.37933488465956L1062.9385643526098 506.37933488465956L1062.9385643526098 444.51110980184313L1048.1010206565998 444.51110980184313L1048.1010206565998 436.7945040475312L1063.0468675912666 430.6212194440817L1069.3284554333732 407.95876675510254L1078.832064625526 407.95876675510254L1078.832064625526 432.1374647852798L1109.4006537364667 432.1374647852798L1109.4006537364667 444.51110980184313L1078.832064625526 444.51110980184313L1078.832064625526 505.891970310703Q1078.832064625526 515.7204892188266 1083.353724839456 520.5670591487278Q1087.8753850533863 525.4136290786289 1095.4024601400483 525.4136290786289ZM1178.6064232382955 430.2421581087822L1178.6064232382955 430.2421581087822Q1181.7472171593486 430.2421581087822 1185.1587691770446 430.56706782475317Q1188.5973970044047 430.8919775407242 1191.2508263515015 431.4605695436735L1191.2508263515015 431.4605695436735L1189.2472164363467 446.13565838169825Q1186.6750145182427 445.45876314009195 1183.5342205971892 445.0797018047924Q1180.3934266761362 444.7006404694929 1177.6316940903826 444.7006404694929L1177.6316940903826 444.7006404694929Q1171.350106248276 444.7006404694929 1165.7995652671043 447.21869076826835Q1160.2219484762682 449.7367410670438 1156.0251979783093 454.4479319486237Q1151.8555232900144 459.15912283020356 1149.4728520395602 465.7926961979454Q1147.090180789106 472.39919375602295 1147.090180789106 480.4948608456344L1147.090180789106 480.4948608456344L1147.090180789106 536.4605594216439L1131.1966805161896 536.4605594216439L1131.1966805161896 432.1374647852798L1144.3284482033523 432.1374647852798L1146.0342242122001 451.3612896468989L1146.7111194538065 451.3612896468989Q1149.9331408038524 445.56706637874896 1154.5089526371112 440.74757225851204Q1159.0847644703695 435.9280781382751 1165.1226700254979 433.0851181235286Q1171.1605755806263 430.2421581087822 1178.6064232382955 430.2421581087822ZM1251.0342140901703 430.2421581087822L1251.0342140901703 430.2421581087822Q1264.3555124449827 430.2421581087822 1273.886197446799 436.14468461558914Q1283.389806638952 442.0201353127319 1288.452983046167 452.63385270111877Q1293.489083643718 463.2475700895057 1293.489083643718 477.43529435357385L1293.489083643718 477.43529435357385L1293.489083643718 487.2367374520332L1221.4403541271427 487.2367374520332Q1221.7111122237852 505.6212122140605 1230.5649019839957 515.23312464487Q1239.4186917442062 524.8450370756796 1255.5017226847717 524.8450370756796L1255.5017226847717 524.8450370756796Q1265.411469021888 524.8450370756796 1273.019771537543 523.0309578281747Q1280.628074053198 521.2168785806698 1288.8320443814664 517.697023324317L1288.8320443814664 517.697023324317L1288.8320443814664 531.6139894917426Q1280.925907959505 535.1338447480955 1273.1551505858647 536.7583933279507Q1265.411469021888 538.3558660981414 1254.8519032528297 538.3558660981414L1254.8519032528297 538.3558660981414Q1239.7977530795056 538.3558660981414 1228.6154436881693 532.2367331140205Q1217.433134296833 526.0905243202352 1211.2598496933838 514.1771680679642Q1205.05948928027 502.29088762535747 1205.05948928027 485.070672678893L1205.05948928027 485.070672678893Q1205.05948928027 468.20244325806385 1210.7183335000987 455.88294986082906Q1216.3771777199272 443.56345646359426 1226.7201370116718 436.9028072861882Q1237.036020493752 430.2421581087822 1251.0342140901703 430.2421581087822ZM1250.8446834225206 443.18439512829474L1250.8446834225206 443.18439512829474Q1238.1732044996506 443.18439512829474 1230.6732052226525 451.4695928855559Q1223.1461301359905 459.7277148331529 1221.7111122237852 474.59233433882736L1221.7111122237852 474.59233433882736L1276.9186881291953 474.59233433882736Q1276.8374607002029 465.25118000466034 1274.0215764951204 458.15731787262627Q1271.2056922900383 451.06345574059213 1265.4926964508809 447.1374633392756Q1259.779700611724 443.18439512829474 1250.8446834225206 443.18439512829474ZM1360.5017125627423 430.2421581087822L1360.5017125627423 430.2421581087822Q1373.8230109175543 430.2421581087822 1383.3536959193711 436.14468461558914Q1392.8573051115236 442.0201353127319 1397.920481518739 452.63385270111877Q1402.9565821162896 463.2475700895057 1402.9565821162896 477.43529435357385L1402.9565821162896 477.43529435357385L1402.9565821162896 487.2367374520332L1330.9078525997147 487.2367374520332Q1331.1786106963573 505.6212122140605 1340.0324004565678 515.23312464487Q1348.8861902167782 524.8450370756796 1364.9692211573438 524.8450370756796L1364.9692211573438 524.8450370756796Q1374.87896749446 524.8450370756796 1382.487270010115 523.0309578281747Q1390.09557252577 521.2168785806698 1398.2995428540385 517.697023324317L1398.2995428540385 517.697023324317L1398.2995428540385 531.6139894917426Q1390.393406432077 535.1338447480955 1382.6226490584363 536.7583933279507Q1374.87896749446 538.3558660981414 1364.3194017254018 538.3558660981414L1364.3194017254018 538.3558660981414Q1349.2652515520776 538.3558660981414 1338.0829421607414 532.2367331140205Q1326.900632769405 526.0905243202352 1320.7002723562914 514.1771680679642Q1314.5269877528422 502.29088762535747 1314.5269877528422 485.070672678893L1314.5269877528422 485.070672678893Q1314.5269877528422 468.20244325806385 1320.1858319726707 455.88294986082906Q1325.8446761924993 443.56345646359426 1336.1876354842439 436.9028072861882Q1346.503518966324 430.2421581087822 1360.5017125627423 430.2421581087822ZM1360.3121818950926 443.18439512829474L1360.3121818950926 443.18439512829474Q1347.6407029722222 443.18439512829474 1340.1407036952246 451.4695928855559Q1332.6136286085625 459.7277148331529 1331.1786106963573 474.59233433882736L1331.1786106963573 474.59233433882736L1386.3861866017673 474.59233433882736Q1386.3049591727745 465.25118000466034 1383.4890749676924 458.15731787262627Q1380.6731907626104 451.06345574059213 1374.960194923453 447.1374633392756Q1369.2471990842955 443.18439512829474 1360.3121818950926 443.18439512829474ZM1491.6840103860445 409.58331533495766L1491.6840103860445 409.58331533495766Q1480.1497154690733 409.58331533495766 1470.9710159928914 413.5363835459385Q1461.79231651671 417.4623759472551 1455.348273816618 424.9352994145887Q1448.9313069261902 432.4082228819223 1445.4926790988302 442.994864460645Q1442.0811270811346 453.55443022970337 1442.0811270811346 466.7945011555227L1442.0811270811346 466.7945011555227Q1442.0811270811346 484.28547419862974 1447.5504406333134 497.20063540847804Q1453.0197541854923 510.0887208086621 1463.931305480186 517.1284313213678Q1474.8157809652153 524.1681418340734 1491.1966458120878 524.1681418340734L1491.1966458120878 524.1681418340734Q1500.5107243365906 524.1681418340734 1508.768846284188 522.5977448735466Q1516.9998924221204 521.0273479130201 1524.797725605425 518.6717524722301L1524.797725605425 518.6717524722301L1524.797725605425 532.7511734976413Q1517.1894230897701 535.5941335123878 1508.795922093852 536.9749998052646Q1500.4294969075981 538.3558660981414 1488.9222778002909 538.3558660981414L1488.9222778002909 538.3558660981414Q1467.694843023517 538.3558660981414 1453.45296714012 529.5562279572596Q1439.2110912567236 520.7565898163775 1432.1443049343538 504.6735588758117Q1425.0504428023196 488.5905279352458 1425.0504428023196 466.68619791686575L1425.0504428023196 466.68619791686575Q1425.0504428023196 450.87392507294237 1429.463799777593 437.7963090051085Q1433.90423256253 424.7186929372747 1442.4060367971056 415.1880079354579Q1450.9349168413446 405.68439874330534 1463.3627134772369 400.4858432877689Q1475.7634343034642 395.2872878322325 1491.8735410536942 395.2872878322325L1491.8735410536942 395.2872878322325Q1502.4331068227525 395.2872878322325 1512.234549921212 397.39920098604415Q1522.0359930196714 399.4840383301916 1529.942129441633 403.3829549218439L1529.942129441633 403.3829549218439L1523.4710109318767 417.08331461195553Q1516.8103617544707 414.0508239295593 1508.8500737131808 411.80353172742633Q1500.9168614815544 409.58331533495766 1491.6840103860445 409.58331533495766ZM1568.4980824035283 388.35588055818386L1568.4980824035283 536.4605594216439L1552.604582130612 536.4605594216439L1552.604582130612 388.35588055818386L1568.4980824035283 388.35588055818386ZM1691.7471679952046 484.0959435309799L1691.7471679952046 484.0959435309799Q1691.7471679952046 496.95695312149974 1688.4168434065018 507.05623012626586Q1685.0865188177986 517.1284313213678 1678.804930975692 524.0869144050805Q1672.5233431335855 531.0453974887935 1663.6424775637106 534.7006317934674Q1654.7345361841717 538.3558660981414 1643.498075173507 538.3558660981414L1643.498075173507 538.3558660981414Q1633.0197368334416 538.3558660981414 1624.3284019312164 534.7006317934674Q1615.6099912193272 531.0453974887935 1609.2742517578922 524.0869144050805Q1602.9385122964572 517.1284313213678 1599.4728086594328 507.05623012626586Q1596.0071050224087 496.95695312149974 1596.0071050224087 484.0959435309799L1596.0071050224087 484.0959435309799Q1596.0071050224087 466.98403182317253 1601.8013282905586 454.93529652258024Q1607.6226273683728 442.88656122198796 1618.4258754244092 436.55082176055294Q1629.229123480446 430.2421581087822 1644.1749704151134 430.2421581087822L1644.1749704151134 430.2421581087822Q1658.4439221081743 430.2421581087822 1669.1388669255539 436.6049733798814Q1679.860887552598 442.994864460645 1685.8175656787334 455.016523951573Q1691.7471679952046 467.0652592521653 1691.7471679952046 484.0959435309799ZM1612.3608940596168 484.0959435309799L1612.3608940596168 484.0959435309799Q1612.3608940596168 496.659119215193 1615.69121864832 505.891970310703Q1619.0215432370228 515.124821406213 1625.9800263207358 520.1879978134282Q1632.9385094044487 525.2240984109792 1643.8771365088069 525.2240984109792L1643.8771365088069 525.2240984109792Q1654.7345361841717 525.2240984109792 1661.7200950775486 520.1879978134282Q1668.73272978059 515.124821406213 1672.0630543692932 505.891970310703Q1675.3933789579964 496.659119215193 1675.3933789579964 484.0959435309799L1675.3933789579964 484.0959435309799Q1675.3933789579964 471.6410710854239 1672.0630543692932 462.54359903823513Q1668.73272978059 453.44612699104636 1661.7742466968775 448.5183296321525Q1654.8157636131646 443.56345646359426 1643.795909079814 443.56345646359426L1643.795909079814 443.56345646359426Q1627.4962716619339 443.56345646359426 1619.9421207656078 454.3125529003024Q1612.3608940596168 465.0616493370106 1612.3608940596168 484.0959435309799ZM1768.4800125836955 430.2421581087822L1768.4800125836955 430.2421581087822Q1787.0540180133726 430.2421581087822 1796.557627205525 439.3125543463067Q1806.088312207342 448.41002639349546 1806.088312207342 468.50027716437063L1806.088312207342 468.50027716437063L1806.088312207342 536.4605594216439L1790.4655700310682 536.4605594216439L1790.4655700310682 469.55623374127646Q1790.4655700310682 456.5056934831069 1784.508891904933 450.0345749733506Q1778.5792895884615 443.56345646359426 1766.286872000891 443.56345646359426L1766.286872000891 443.56345646359426Q1748.9583538157694 443.56345646359426 1741.918643303064 453.3648995620536Q1734.8789327903582 463.16634266051295 1734.8789327903582 481.8215755191828L1734.8789327903582 481.8215755191828L1734.8789327903582 536.4605594216439L1719.0666599464353 536.4605594216439L1719.0666599464353 432.1374647852798L1731.8193662982976 432.1374647852798L1734.2020375487518 447.1645391489398L1735.068463458008 447.1645391489398Q1738.3987880467112 441.64107397743237 1743.543191882919 437.90461224376554Q1748.6875957191269 434.1410747004345 1755.0504109902263 432.19161640460834Q1761.4403020709901 430.2421581087822 1768.4800125836955 430.2421581087822ZM1878.8139369655232 430.2421581087822L1878.8139369655232 430.2421581087822Q1892.1352353203356 430.2421581087822 1901.6388445124885 436.14468461558914Q1911.169529514305 442.0201353127319 1916.205630111856 452.63385270111877Q1921.2688065190714 463.2475700895057 1921.2688065190714 477.43529435357385L1921.2688065190714 477.43529435357385L1921.2688065190714 487.2367374520332L1849.1930011928316 487.2367374520332Q1849.4908350991386 505.6212122140605 1858.3446248593486 515.23312464487Q1867.1984146195591 524.8450370756796 1883.2814455601251 524.8450370756796L1883.2814455601251 524.8450370756796Q1893.1641160875774 524.8450370756796 1900.7994944128964 523.0309578281747Q1908.4077969285513 521.2168785806698 1916.5846914471554 517.697023324317L1916.5846914471554 517.697023324317L1916.5846914471554 531.6139894917426Q1908.6785550251934 535.1338447480955 1900.9348734612176 536.7583933279507Q1893.1641160875774 538.3558660981414 1882.6045503185187 538.3558660981414L1882.6045503185187 538.3558660981414Q1867.5774759548585 538.3558660981414 1856.3951665635227 532.2367331140205Q1845.2128571721864 526.0905243202352 1839.0124967590727 514.1771680679642Q1832.839212155623 502.29088762535747 1832.839212155623 485.070672678893L1832.839212155623 485.070672678893Q1832.839212155623 468.20244325806385 1838.498056375452 455.88294986082906Q1844.1569005952806 443.56345646359426 1854.4727840773608 436.9028072861882Q1864.815743369105 430.2421581087822 1878.8139369655232 430.2421581087822ZM1878.624406297874 443.18439512829474L1878.624406297874 443.18439512829474Q1865.9529273750036 443.18439512829474 1858.4258522883415 451.4695928855559Q1850.9258530113434 459.7277148331529 1849.4908350991386 474.59233433882736L1849.4908350991386 474.59233433882736L1904.6984110045487 474.59233433882736Q1904.5901077658914 465.25118000466034 1901.8012993704738 458.15731787262627Q1898.9854151653913 451.06345574059213 1893.2724193262343 447.1374633392756Q1887.5594234870773 443.18439512829474 1878.624406297874 443.18439512829474Z " fill="#317773" transform="matrix(0.45542824593211906,0,0,0.4554282459321191,0,88.9746554920358)"/></g></svg>